<mxfile host="Electron" agent="Mozilla/5.0 (X11; Linux x86_64) AppleWebKit/537.36 (KHTML, like Gecko) draw.io/27.0.5 Chrome/134.0.6998.205 Electron/35.3.0 Safari/537.36" version="27.0.5">
  <diagram name="Page-1" id="3njaK-IZwawXdmXQfTT4">
    <mxGraphModel dx="2066" dy="1151" grid="1" gridSize="10" guides="1" tooltips="1" connect="1" arrows="1" fold="1" page="1" pageScale="1" pageWidth="850" pageHeight="1100" math="0" shadow="0">
      <root>
        <mxCell id="0" />
        <mxCell id="1" parent="0" />
        <mxCell id="-AmC5wFXGaRMJFl_R3gp-1" value="" style="line;strokeWidth=2;direction=south;html=1;fillColor=none;fontSize=13;fontColor=#000000;align=center;strokeColor=light-dark(#ac8680, #ec8f82);rotation=90;" parent="1" vertex="1">
          <mxGeometry x="374.38" y="-114.37" width="10" height="678.75" as="geometry" />
        </mxCell>
        <mxCell id="-AmC5wFXGaRMJFl_R3gp-2" value="rclcpp&lt;div&gt;&lt;font style=&quot;font-size: 14px;&quot;&gt;C++ API&lt;/font&gt;&lt;/div&gt;" style="rounded=1;whiteSpace=wrap;html=1;strokeColor=none;strokeWidth=1;fillColor=#2980B9;fontSize=24;fontColor=#FFFFFF;align=center;gradientColor=none;gradientDirection=east;verticalAlign=middle;shadow=1;" parent="1" vertex="1">
          <mxGeometry x="60" y="240" width="220" height="85" as="geometry" />
        </mxCell>
        <mxCell id="-AmC5wFXGaRMJFl_R3gp-3" value="ROS 2&lt;div&gt;Node&lt;/div&gt;" style="rounded=1;whiteSpace=wrap;html=1;strokeColor=none;strokeWidth=1;fillColor=#739F6B;fontSize=24;fontColor=#FFFFFF;align=center;gradientColor=none;gradientDirection=east;verticalAlign=middle;shadow=1;" parent="1" vertex="1">
          <mxGeometry x="60" y="120" width="220" height="85" as="geometry" />
        </mxCell>
        <mxCell id="-AmC5wFXGaRMJFl_R3gp-4" value="rcl&lt;div&gt;&lt;span style=&quot;font-size: 14px;&quot;&gt;ROS Core Library&lt;/span&gt;&lt;/div&gt;" style="rounded=1;whiteSpace=wrap;html=1;strokeColor=none;strokeWidth=1;fillColor=#2980B9;fontSize=24;fontColor=#FFFFFF;align=center;gradientColor=none;gradientDirection=east;verticalAlign=middle;shadow=1;fontFamily=Helvetica;" parent="1" vertex="1">
          <mxGeometry x="60" y="360" width="220" height="85" as="geometry" />
        </mxCell>
        <mxCell id="-AmC5wFXGaRMJFl_R3gp-5" value="rmw&lt;br&gt;&lt;div&gt;&lt;span style=&quot;font-size: 14px;&quot;&gt;ROS Middleware Interface&lt;/span&gt;&lt;/div&gt;" style="rounded=1;whiteSpace=wrap;html=1;strokeColor=none;strokeWidth=1;fillColor=#2980B9;fontSize=24;fontColor=#FFFFFF;align=center;gradientColor=none;gradientDirection=east;verticalAlign=middle;shadow=1;fontFamily=Helvetica;" parent="1" vertex="1">
          <mxGeometry x="60" y="480" width="220" height="85" as="geometry" />
        </mxCell>
        <mxCell id="-AmC5wFXGaRMJFl_R3gp-6" value="DDS / Zenoh / ..&lt;br&gt;&lt;div&gt;&lt;span style=&quot;font-size: 14px;&quot;&gt;Middleware Implementation&lt;/span&gt;&lt;/div&gt;" style="rounded=1;whiteSpace=wrap;html=1;strokeColor=none;strokeWidth=1;fillColor=#2980B9;fontSize=24;fontColor=#FFFFFF;align=center;gradientColor=none;gradientDirection=east;verticalAlign=middle;shadow=1;fontFamily=Helvetica;" parent="1" vertex="1">
          <mxGeometry x="60" y="600" width="220" height="85" as="geometry" />
        </mxCell>
        <mxCell id="-AmC5wFXGaRMJFl_R3gp-7" value="" style="endArrow=blockThin;html=1;rounded=0;shadow=1;hachureGap=4;strokeColor=default;align=center;verticalAlign=middle;fontFamily=Architects Daughter;fontSource=https%3A%2F%2Ffonts.googleapis.com%2Fcss%3Ffamily%3DArchitects%2BDaughter;fontSize=11;fontColor=default;labelBackgroundColor=default;flowAnimation=0;targetPerimeterSpacing=0;curved=0;endFill=1;exitX=0.25;exitY=1;exitDx=0;exitDy=0;entryX=0.25;entryY=0;entryDx=0;entryDy=0;" parent="1" source="-AmC5wFXGaRMJFl_R3gp-2" target="-AmC5wFXGaRMJFl_R3gp-4" edge="1">
          <mxGeometry width="50" height="50" relative="1" as="geometry">
            <mxPoint x="340" y="460" as="sourcePoint" />
            <mxPoint x="390" y="410" as="targetPoint" />
          </mxGeometry>
        </mxCell>
        <mxCell id="-AmC5wFXGaRMJFl_R3gp-8" value="" style="endArrow=blockThin;html=1;rounded=0;shadow=1;hachureGap=4;strokeColor=default;align=center;verticalAlign=middle;fontFamily=Architects Daughter;fontSource=https%3A%2F%2Ffonts.googleapis.com%2Fcss%3Ffamily%3DArchitects%2BDaughter;fontSize=11;fontColor=default;labelBackgroundColor=default;flowAnimation=0;targetPerimeterSpacing=0;curved=0;entryX=0.75;entryY=1;entryDx=0;entryDy=0;exitX=0.75;exitY=0;exitDx=0;exitDy=0;endFill=1;" parent="1" source="-AmC5wFXGaRMJFl_R3gp-4" target="-AmC5wFXGaRMJFl_R3gp-2" edge="1">
          <mxGeometry width="50" height="50" relative="1" as="geometry">
            <mxPoint x="340" y="460" as="sourcePoint" />
            <mxPoint x="390" y="410" as="targetPoint" />
          </mxGeometry>
        </mxCell>
        <mxCell id="-AmC5wFXGaRMJFl_R3gp-9" value="" style="endArrow=blockThin;html=1;rounded=0;shadow=1;hachureGap=4;strokeColor=default;align=center;verticalAlign=middle;fontFamily=Architects Daughter;fontSource=https%3A%2F%2Ffonts.googleapis.com%2Fcss%3Ffamily%3DArchitects%2BDaughter;fontSize=11;fontColor=default;labelBackgroundColor=default;flowAnimation=0;targetPerimeterSpacing=0;curved=0;endFill=1;exitX=0.25;exitY=1;exitDx=0;exitDy=0;entryX=0.25;entryY=0;entryDx=0;entryDy=0;" parent="1" source="-AmC5wFXGaRMJFl_R3gp-4" target="-AmC5wFXGaRMJFl_R3gp-5" edge="1">
          <mxGeometry width="50" height="50" relative="1" as="geometry">
            <mxPoint x="84.8" y="445" as="sourcePoint" />
            <mxPoint x="84.8" y="480" as="targetPoint" />
          </mxGeometry>
        </mxCell>
        <mxCell id="-AmC5wFXGaRMJFl_R3gp-10" value="" style="endArrow=blockThin;html=1;rounded=0;shadow=1;hachureGap=4;strokeColor=default;align=center;verticalAlign=middle;fontFamily=Architects Daughter;fontSource=https%3A%2F%2Ffonts.googleapis.com%2Fcss%3Ffamily%3DArchitects%2BDaughter;fontSize=11;fontColor=default;labelBackgroundColor=default;flowAnimation=0;targetPerimeterSpacing=0;curved=0;endFill=1;exitX=0.25;exitY=1;exitDx=0;exitDy=0;entryX=0.25;entryY=0;entryDx=0;entryDy=0;" parent="1" source="-AmC5wFXGaRMJFl_R3gp-5" target="-AmC5wFXGaRMJFl_R3gp-6" edge="1">
          <mxGeometry width="50" height="50" relative="1" as="geometry">
            <mxPoint x="40" y="550" as="sourcePoint" />
            <mxPoint x="40" y="585" as="targetPoint" />
          </mxGeometry>
        </mxCell>
        <mxCell id="-AmC5wFXGaRMJFl_R3gp-11" value="" style="endArrow=blockThin;html=1;rounded=0;shadow=1;hachureGap=4;strokeColor=default;align=center;verticalAlign=middle;fontFamily=Architects Daughter;fontSource=https%3A%2F%2Ffonts.googleapis.com%2Fcss%3Ffamily%3DArchitects%2BDaughter;fontSize=11;fontColor=default;labelBackgroundColor=default;flowAnimation=0;targetPerimeterSpacing=0;curved=0;entryX=0.75;entryY=1;entryDx=0;entryDy=0;exitX=0.75;exitY=0;exitDx=0;exitDy=0;endFill=1;" parent="1" source="-AmC5wFXGaRMJFl_R3gp-5" target="-AmC5wFXGaRMJFl_R3gp-4" edge="1">
          <mxGeometry width="50" height="50" relative="1" as="geometry">
            <mxPoint x="310" y="495" as="sourcePoint" />
            <mxPoint x="310" y="460" as="targetPoint" />
          </mxGeometry>
        </mxCell>
        <mxCell id="-AmC5wFXGaRMJFl_R3gp-12" value="" style="endArrow=blockThin;html=1;rounded=0;shadow=1;hachureGap=4;strokeColor=default;align=center;verticalAlign=middle;fontFamily=Architects Daughter;fontSource=https%3A%2F%2Ffonts.googleapis.com%2Fcss%3Ffamily%3DArchitects%2BDaughter;fontSize=11;fontColor=default;labelBackgroundColor=default;flowAnimation=0;targetPerimeterSpacing=0;curved=0;entryX=0.75;entryY=1;entryDx=0;entryDy=0;exitX=0.75;exitY=0;exitDx=0;exitDy=0;endFill=1;" parent="1" source="-AmC5wFXGaRMJFl_R3gp-6" target="-AmC5wFXGaRMJFl_R3gp-5" edge="1">
          <mxGeometry width="50" height="50" relative="1" as="geometry">
            <mxPoint x="320" y="595" as="sourcePoint" />
            <mxPoint x="320" y="560" as="targetPoint" />
          </mxGeometry>
        </mxCell>
        <mxCell id="-AmC5wFXGaRMJFl_R3gp-13" value="" style="endArrow=blockThin;html=1;rounded=0;shadow=1;hachureGap=4;strokeColor=default;align=center;verticalAlign=middle;fontFamily=Architects Daughter;fontSource=https%3A%2F%2Ffonts.googleapis.com%2Fcss%3Ffamily%3DArchitects%2BDaughter;fontSize=11;fontColor=default;labelBackgroundColor=default;flowAnimation=0;targetPerimeterSpacing=0;curved=0;entryX=0.75;entryY=1;entryDx=0;entryDy=0;exitX=0.75;exitY=0;exitDx=0;exitDy=0;endFill=1;" parent="1" source="-AmC5wFXGaRMJFl_R3gp-2" target="-AmC5wFXGaRMJFl_R3gp-3" edge="1">
          <mxGeometry width="50" height="50" relative="1" as="geometry">
            <mxPoint x="280" y="240" as="sourcePoint" />
            <mxPoint x="280" y="205" as="targetPoint" />
          </mxGeometry>
        </mxCell>
        <mxCell id="-AmC5wFXGaRMJFl_R3gp-14" value="" style="endArrow=blockThin;html=1;rounded=0;shadow=1;hachureGap=4;strokeColor=default;align=center;verticalAlign=middle;fontFamily=Architects Daughter;fontSource=https%3A%2F%2Ffonts.googleapis.com%2Fcss%3Ffamily%3DArchitects%2BDaughter;fontSize=11;fontColor=default;labelBackgroundColor=default;flowAnimation=0;targetPerimeterSpacing=0;curved=0;endFill=1;exitX=0.25;exitY=1;exitDx=0;exitDy=0;entryX=0.25;entryY=0;entryDx=0;entryDy=0;" parent="1" source="-AmC5wFXGaRMJFl_R3gp-3" target="-AmC5wFXGaRMJFl_R3gp-2" edge="1">
          <mxGeometry width="50" height="50" relative="1" as="geometry">
            <mxPoint x="125" y="335" as="sourcePoint" />
            <mxPoint x="125" y="370" as="targetPoint" />
          </mxGeometry>
        </mxCell>
        <mxCell id="-AmC5wFXGaRMJFl_R3gp-15" value="rclcpp&lt;div&gt;&lt;font style=&quot;font-size: 14px;&quot;&gt;C++ API&lt;/font&gt;&lt;/div&gt;" style="rounded=1;whiteSpace=wrap;html=1;strokeColor=none;strokeWidth=1;fillColor=#2980B9;fontSize=24;fontColor=#FFFFFF;align=center;gradientColor=none;gradientDirection=east;verticalAlign=middle;shadow=1;fontFamily=Helvetica;" parent="1" vertex="1">
          <mxGeometry x="480" y="240" width="220" height="85" as="geometry" />
        </mxCell>
        <mxCell id="-AmC5wFXGaRMJFl_R3gp-16" value="ROS 2&lt;div&gt;Node&lt;/div&gt;" style="rounded=1;whiteSpace=wrap;html=1;strokeColor=none;strokeWidth=1;fillColor=#739F6B;fontSize=24;fontColor=#FFFFFF;align=center;gradientColor=none;gradientDirection=east;verticalAlign=middle;shadow=1;fontFamily=Helvetica;" parent="1" vertex="1">
          <mxGeometry x="480" y="120" width="220" height="85" as="geometry" />
        </mxCell>
        <mxCell id="-AmC5wFXGaRMJFl_R3gp-17" value="rcl&lt;div&gt;&lt;span style=&quot;font-size: 14px;&quot;&gt;ROS Core Library&lt;/span&gt;&lt;/div&gt;" style="rounded=1;whiteSpace=wrap;html=1;strokeColor=none;strokeWidth=1;fillColor=#2980B9;fontSize=24;fontColor=#FFFFFF;align=center;gradientColor=none;gradientDirection=east;verticalAlign=middle;shadow=1;fontFamily=Helvetica;" parent="1" vertex="1">
          <mxGeometry x="480" y="360" width="220" height="85" as="geometry" />
        </mxCell>
        <mxCell id="-AmC5wFXGaRMJFl_R3gp-18" value="rmw&lt;br&gt;&lt;div&gt;&lt;span style=&quot;font-size: 14px;&quot;&gt;ROS Middleware Interface&lt;/span&gt;&lt;/div&gt;" style="rounded=1;whiteSpace=wrap;html=1;strokeColor=none;strokeWidth=1;fillColor=#2980B9;fontSize=24;fontColor=#FFFFFF;align=center;gradientColor=none;gradientDirection=east;verticalAlign=middle;shadow=1;fontFamily=Helvetica;" parent="1" vertex="1">
          <mxGeometry x="480" y="480" width="220" height="85" as="geometry" />
        </mxCell>
        <mxCell id="-AmC5wFXGaRMJFl_R3gp-19" value="DDS / Zenoh / ..&lt;br&gt;&lt;div&gt;&lt;span style=&quot;font-size: 14px;&quot;&gt;Middleware Implementation&lt;/span&gt;&lt;/div&gt;" style="rounded=1;whiteSpace=wrap;html=1;strokeColor=none;strokeWidth=1;fillColor=#2980B9;fontSize=24;fontColor=#FFFFFF;align=center;gradientColor=none;gradientDirection=east;verticalAlign=middle;shadow=1;fontFamily=Helvetica;" parent="1" vertex="1">
          <mxGeometry x="480" y="600" width="220" height="85" as="geometry" />
        </mxCell>
        <mxCell id="-AmC5wFXGaRMJFl_R3gp-20" value="" style="endArrow=blockThin;html=1;rounded=0;shadow=1;hachureGap=4;strokeColor=default;align=center;verticalAlign=middle;fontFamily=Architects Daughter;fontSource=https%3A%2F%2Ffonts.googleapis.com%2Fcss%3Ffamily%3DArchitects%2BDaughter;fontSize=11;fontColor=default;labelBackgroundColor=default;flowAnimation=0;targetPerimeterSpacing=0;curved=0;endFill=1;exitX=0.25;exitY=1;exitDx=0;exitDy=0;entryX=0.25;entryY=0;entryDx=0;entryDy=0;" parent="1" source="-AmC5wFXGaRMJFl_R3gp-15" target="-AmC5wFXGaRMJFl_R3gp-17" edge="1">
          <mxGeometry width="50" height="50" relative="1" as="geometry">
            <mxPoint x="760" y="460" as="sourcePoint" />
            <mxPoint x="810" y="410" as="targetPoint" />
          </mxGeometry>
        </mxCell>
        <mxCell id="-AmC5wFXGaRMJFl_R3gp-21" value="" style="endArrow=blockThin;html=1;rounded=0;shadow=1;hachureGap=4;strokeColor=default;align=center;verticalAlign=middle;fontFamily=Architects Daughter;fontSource=https%3A%2F%2Ffonts.googleapis.com%2Fcss%3Ffamily%3DArchitects%2BDaughter;fontSize=11;fontColor=default;labelBackgroundColor=default;flowAnimation=0;targetPerimeterSpacing=0;curved=0;entryX=0.75;entryY=1;entryDx=0;entryDy=0;exitX=0.75;exitY=0;exitDx=0;exitDy=0;endFill=1;" parent="1" source="-AmC5wFXGaRMJFl_R3gp-17" target="-AmC5wFXGaRMJFl_R3gp-15" edge="1">
          <mxGeometry width="50" height="50" relative="1" as="geometry">
            <mxPoint x="760" y="460" as="sourcePoint" />
            <mxPoint x="810" y="410" as="targetPoint" />
          </mxGeometry>
        </mxCell>
        <mxCell id="-AmC5wFXGaRMJFl_R3gp-22" value="" style="endArrow=blockThin;html=1;rounded=0;shadow=1;hachureGap=4;strokeColor=default;align=center;verticalAlign=middle;fontFamily=Architects Daughter;fontSource=https%3A%2F%2Ffonts.googleapis.com%2Fcss%3Ffamily%3DArchitects%2BDaughter;fontSize=11;fontColor=default;labelBackgroundColor=default;flowAnimation=0;targetPerimeterSpacing=0;curved=0;endFill=1;exitX=0.25;exitY=1;exitDx=0;exitDy=0;entryX=0.25;entryY=0;entryDx=0;entryDy=0;" parent="1" source="-AmC5wFXGaRMJFl_R3gp-17" target="-AmC5wFXGaRMJFl_R3gp-18" edge="1">
          <mxGeometry width="50" height="50" relative="1" as="geometry">
            <mxPoint x="504.8" y="445" as="sourcePoint" />
            <mxPoint x="504.8" y="480" as="targetPoint" />
          </mxGeometry>
        </mxCell>
        <mxCell id="-AmC5wFXGaRMJFl_R3gp-23" value="" style="endArrow=blockThin;html=1;rounded=0;shadow=1;hachureGap=4;strokeColor=default;align=center;verticalAlign=middle;fontFamily=Architects Daughter;fontSource=https%3A%2F%2Ffonts.googleapis.com%2Fcss%3Ffamily%3DArchitects%2BDaughter;fontSize=11;fontColor=default;labelBackgroundColor=default;flowAnimation=0;targetPerimeterSpacing=0;curved=0;endFill=1;exitX=0.25;exitY=1;exitDx=0;exitDy=0;entryX=0.25;entryY=0;entryDx=0;entryDy=0;" parent="1" source="-AmC5wFXGaRMJFl_R3gp-18" target="-AmC5wFXGaRMJFl_R3gp-19" edge="1">
          <mxGeometry width="50" height="50" relative="1" as="geometry">
            <mxPoint x="460" y="550" as="sourcePoint" />
            <mxPoint x="460" y="585" as="targetPoint" />
          </mxGeometry>
        </mxCell>
        <mxCell id="-AmC5wFXGaRMJFl_R3gp-24" value="" style="endArrow=blockThin;html=1;rounded=0;shadow=1;hachureGap=4;strokeColor=default;align=center;verticalAlign=middle;fontFamily=Architects Daughter;fontSource=https%3A%2F%2Ffonts.googleapis.com%2Fcss%3Ffamily%3DArchitects%2BDaughter;fontSize=11;fontColor=default;labelBackgroundColor=default;flowAnimation=0;targetPerimeterSpacing=0;curved=0;entryX=0.75;entryY=1;entryDx=0;entryDy=0;exitX=0.75;exitY=0;exitDx=0;exitDy=0;endFill=1;" parent="1" source="-AmC5wFXGaRMJFl_R3gp-18" target="-AmC5wFXGaRMJFl_R3gp-17" edge="1">
          <mxGeometry width="50" height="50" relative="1" as="geometry">
            <mxPoint x="730" y="495" as="sourcePoint" />
            <mxPoint x="730" y="460" as="targetPoint" />
          </mxGeometry>
        </mxCell>
        <mxCell id="-AmC5wFXGaRMJFl_R3gp-25" value="" style="endArrow=blockThin;html=1;rounded=0;shadow=1;hachureGap=4;strokeColor=default;align=center;verticalAlign=middle;fontFamily=Architects Daughter;fontSource=https%3A%2F%2Ffonts.googleapis.com%2Fcss%3Ffamily%3DArchitects%2BDaughter;fontSize=11;fontColor=default;labelBackgroundColor=default;flowAnimation=0;targetPerimeterSpacing=0;curved=0;entryX=0.75;entryY=1;entryDx=0;entryDy=0;exitX=0.75;exitY=0;exitDx=0;exitDy=0;endFill=1;" parent="1" source="-AmC5wFXGaRMJFl_R3gp-19" target="-AmC5wFXGaRMJFl_R3gp-18" edge="1">
          <mxGeometry width="50" height="50" relative="1" as="geometry">
            <mxPoint x="740" y="595" as="sourcePoint" />
            <mxPoint x="740" y="560" as="targetPoint" />
          </mxGeometry>
        </mxCell>
        <mxCell id="-AmC5wFXGaRMJFl_R3gp-26" value="" style="endArrow=blockThin;html=1;rounded=0;shadow=1;hachureGap=4;strokeColor=default;align=center;verticalAlign=middle;fontFamily=Architects Daughter;fontSource=https%3A%2F%2Ffonts.googleapis.com%2Fcss%3Ffamily%3DArchitects%2BDaughter;fontSize=11;fontColor=default;labelBackgroundColor=default;flowAnimation=0;targetPerimeterSpacing=0;curved=0;entryX=0.75;entryY=1;entryDx=0;entryDy=0;exitX=0.75;exitY=0;exitDx=0;exitDy=0;endFill=1;" parent="1" source="-AmC5wFXGaRMJFl_R3gp-15" target="-AmC5wFXGaRMJFl_R3gp-16" edge="1">
          <mxGeometry width="50" height="50" relative="1" as="geometry">
            <mxPoint x="700" y="240" as="sourcePoint" />
            <mxPoint x="700" y="205" as="targetPoint" />
          </mxGeometry>
        </mxCell>
        <mxCell id="-AmC5wFXGaRMJFl_R3gp-27" value="" style="endArrow=blockThin;html=1;rounded=0;shadow=1;hachureGap=4;strokeColor=default;align=center;verticalAlign=middle;fontFamily=Architects Daughter;fontSource=https%3A%2F%2Ffonts.googleapis.com%2Fcss%3Ffamily%3DArchitects%2BDaughter;fontSize=11;fontColor=default;labelBackgroundColor=default;flowAnimation=0;targetPerimeterSpacing=0;curved=0;endFill=1;exitX=0.25;exitY=1;exitDx=0;exitDy=0;entryX=0.25;entryY=0;entryDx=0;entryDy=0;" parent="1" source="-AmC5wFXGaRMJFl_R3gp-16" target="-AmC5wFXGaRMJFl_R3gp-15" edge="1">
          <mxGeometry width="50" height="50" relative="1" as="geometry">
            <mxPoint x="545" y="335" as="sourcePoint" />
            <mxPoint x="545" y="370" as="targetPoint" />
          </mxGeometry>
        </mxCell>
        <mxCell id="-AmC5wFXGaRMJFl_R3gp-28" value="" style="endArrow=block;startArrow=block;html=1;rounded=0;shadow=1;hachureGap=4;strokeColor=default;align=center;verticalAlign=middle;fontFamily=Architects Daughter;fontSource=https%3A%2F%2Ffonts.googleapis.com%2Fcss%3Ffamily%3DArchitects%2BDaughter;fontSize=11;fontColor=default;labelBackgroundColor=default;flowAnimation=0;targetPerimeterSpacing=0;curved=0;exitX=1;exitY=0.5;exitDx=0;exitDy=0;entryX=0;entryY=0.5;entryDx=0;entryDy=0;strokeWidth=2;startFill=1;endFill=1;" parent="1" source="-AmC5wFXGaRMJFl_R3gp-6" target="-AmC5wFXGaRMJFl_R3gp-19" edge="1">
          <mxGeometry width="50" height="50" relative="1" as="geometry">
            <mxPoint x="820" y="390" as="sourcePoint" />
            <mxPoint x="870" y="340" as="targetPoint" />
            <Array as="points" />
          </mxGeometry>
        </mxCell>
        <mxCell id="-AmC5wFXGaRMJFl_R3gp-29" style="edgeStyle=none;shape=connector;curved=0;rounded=0;hachureGap=4;orthogonalLoop=1;jettySize=auto;html=1;entryX=1;entryY=0.5;entryDx=0;entryDy=0;shadow=1;strokeColor=default;align=center;verticalAlign=middle;fontFamily=Architects Daughter;fontSource=https%3A%2F%2Ffonts.googleapis.com%2Fcss%3Ffamily%3DArchitects%2BDaughter;fontSize=11;fontColor=default;labelBackgroundColor=default;startArrow=none;startFill=0;endArrow=blockThin;endFill=1;flowAnimation=0;targetPerimeterSpacing=0;" parent="1" source="-AmC5wFXGaRMJFl_R3gp-31" target="-AmC5wFXGaRMJFl_R3gp-4" edge="1">
          <mxGeometry relative="1" as="geometry" />
        </mxCell>
        <mxCell id="-AmC5wFXGaRMJFl_R3gp-30" style="edgeStyle=none;shape=connector;curved=0;rounded=0;hachureGap=4;orthogonalLoop=1;jettySize=auto;html=1;entryX=0;entryY=0.5;entryDx=0;entryDy=0;shadow=1;strokeColor=default;align=center;verticalAlign=middle;fontFamily=Architects Daughter;fontSource=https%3A%2F%2Ffonts.googleapis.com%2Fcss%3Ffamily%3DArchitects%2BDaughter;fontSize=11;fontColor=default;labelBackgroundColor=default;startArrow=none;startFill=0;endArrow=blockThin;endFill=1;flowAnimation=0;targetPerimeterSpacing=0;" parent="1" source="-AmC5wFXGaRMJFl_R3gp-31" target="-AmC5wFXGaRMJFl_R3gp-17" edge="1">
          <mxGeometry relative="1" as="geometry" />
        </mxCell>
        <mxCell id="-AmC5wFXGaRMJFl_R3gp-31" value="Time Source" style="pointerEvents=1;shadow=0;dashed=0;html=1;strokeColor=none;fillColor=#505050;labelPosition=center;verticalLabelPosition=top;verticalAlign=bottom;outlineConnect=0;align=center;shape=mxgraph.office.concepts.clock;hachureGap=4;fontFamily=Helvetica;fontSize=15;fontColor=default;labelBackgroundColor=none;" parent="1" vertex="1">
          <mxGeometry x="349.07" y="372.5" width="60.62" height="60" as="geometry" />
        </mxCell>
        <mxCell id="-AmC5wFXGaRMJFl_R3gp-32" style="edgeStyle=none;shape=connector;curved=0;rounded=0;hachureGap=4;orthogonalLoop=1;jettySize=auto;html=1;entryX=0.5;entryY=1;entryDx=0;entryDy=0;shadow=1;strokeColor=default;align=center;verticalAlign=middle;fontFamily=Architects Daughter;fontSource=https%3A%2F%2Ffonts.googleapis.com%2Fcss%3Ffamily%3DArchitects%2BDaughter;fontSize=11;fontColor=default;labelBackgroundColor=default;startArrow=none;startFill=0;endArrow=blockThin;endFill=1;flowAnimation=0;targetPerimeterSpacing=0;" parent="1" source="-AmC5wFXGaRMJFl_R3gp-33" target="-AmC5wFXGaRMJFl_R3gp-35" edge="1">
          <mxGeometry relative="1" as="geometry" />
        </mxCell>
        <mxCell id="-AmC5wFXGaRMJFl_R3gp-33" value="System&lt;div&gt;Time&lt;/div&gt;" style="rounded=1;whiteSpace=wrap;html=1;strokeColor=none;strokeWidth=1;fillColor=#8D7199;fontSize=14;fontColor=#FFFFFF;align=center;gradientColor=none;gradientDirection=east;verticalAlign=middle;shadow=1;" parent="1" vertex="1">
          <mxGeometry x="328.92" y="564.38" width="100" height="40" as="geometry" />
        </mxCell>
        <mxCell id="-AmC5wFXGaRMJFl_R3gp-34" style="edgeStyle=none;shape=connector;curved=0;rounded=0;hachureGap=4;orthogonalLoop=1;jettySize=auto;html=1;shadow=1;strokeColor=default;align=center;verticalAlign=middle;fontFamily=Architects Daughter;fontSource=https%3A%2F%2Ffonts.googleapis.com%2Fcss%3Ffamily%3DArchitects%2BDaughter;fontSize=11;fontColor=default;labelBackgroundColor=default;startArrow=none;startFill=0;endArrow=blockThin;endFill=1;flowAnimation=0;targetPerimeterSpacing=0;" parent="1" source="-AmC5wFXGaRMJFl_R3gp-35" target="-AmC5wFXGaRMJFl_R3gp-31" edge="1">
          <mxGeometry relative="1" as="geometry" />
        </mxCell>
        <mxCell id="-AmC5wFXGaRMJFl_R3gp-35" value="ROS&lt;br&gt;&lt;div&gt;Time&lt;/div&gt;" style="rounded=1;whiteSpace=wrap;html=1;strokeColor=none;strokeWidth=1;fillColor=#2980B9;fontSize=14;fontColor=#FFFFFF;align=center;gradientColor=none;gradientDirection=east;verticalAlign=middle;shadow=1;" parent="1" vertex="1">
          <mxGeometry x="328.92" y="476.25" width="100.93" height="40" as="geometry" />
        </mxCell>
      </root>
    </mxGraphModel>
  </diagram>
</mxfile>
